{
	"asset":{
		"generator":"Khronos glTF Blender I/O v5.1.19",
		"version":"2.0"
	},
	"scene":0,
	"scenes":[
		{
			"name":"Scene",
			"nodes":[
				0
			]
		}
	],
	"nodes":[
		{
			"mesh":0,
			"name":"phone"
		}
	],
	"meshes":[
		{
			"name":"Cube.001",
			"primitives":[
				{
					"attributes":{
						"POSITION":0,
						"NORMAL":1,
						"TEXCOORD_0":2,
						"TANGENT":3
					},
					"indices":4
				}
			]
		}
	],
	"accessors":[
		{
			"bufferView":0,
			"componentType":5126,
			"count":380,
			"max":[
				0.08284274488687515,
				0.2996070981025696,
				0.03685823082923889
			],
			"min":[
				-0.08284274488687515,
				0,
				-0.034038759768009186
			],
			"type":"VEC3"
		},
		{
			"bufferView":1,
			"componentType":5126,
			"count":380,
			"type":"VEC3"
		},
		{
			"bufferView":2,
			"componentType":5126,
			"count":380,
			"type":"VEC2"
		},
		{
			"bufferView":3,
			"componentType":5126,
			"count":380,
			"type":"VEC4"
		},
		{
			"bufferView":4,
			"componentType":5123,
			"count":852,
			"type":"SCALAR"
		}
	],
	"bufferViews":[
		{
			"buffer":0,
			"byteLength":4560,
			"byteOffset":0,
			"target":34962
		},
		{
			"buffer":0,
			"byteLength":4560,
			"byteOffset":4560,
			"target":34962
		},
		{
			"buffer":0,
			"byteLength":3040,
			"byteOffset":9120,
			"target":34962
		},
		{
			"buffer":0,
			"byteLength":6080,
			"byteOffset":12160,
			"target":34962
		},
		{
			"buffer":0,
			"byteLength":1704,
			"byteOffset":18240,
			"target":34963
		}
	],
	"buffers":[
		{
			"byteLength":19944,
			"uri":"phone.bin"
		}
	]
}
